<?xml version="1.0" encoding="UTF-8"?>
<!-- Generator: Adobe Illustrator 19.1.0, SVG Export Plug-In . SVG Version: 6.00 Build 0)  -->
<svg version="1.1" id="Layer_1" xmlns="http://www.w3.org/2000/svg" xmlns:xlink="http://www.w3.org/1999/xlink" x="0px" y="0px" viewBox="0 0 179 207.7" enable-background="new 0 0 179 207.7" xml:space="preserve">
<g>
	<path fill="#FFFFFF" d="M35.3,151H20.6v8.2h13.1v2.5H20.6v8.4h14.8v2.5H17.9v-24h17.3V151z"/>
	<path fill="#FFFFFF" d="M59,148.6h2.9l-10.3,24.1h-2.4l-10.3-24.1h3l8.5,20.6L59,148.6z"/>
	<path fill="#FFFFFF" d="M83.5,172.5h-2.9l-2.8-6.3h-13l-2.8,6.3h-2.8l10.9-24.1h2.5L83.5,172.5z M71.3,151.6l-5.5,12.2h10.9   L71.3,151.6z"/>
	<path fill="#FFFFFF" d="M105.1,148.6h2.6v24h-2.2l-15.5-19.6v19.6h-2.6v-24H90l15.1,19.2V148.6z"/>
	<path fill="#FFFFFF" d="M122.5,159.3c5.3,1.2,7.8,3.1,7.8,6.8c0,4.1-3.4,6.8-8.2,6.8c-3.8,0-6.9-1.3-9.8-3.8l1.7-2   c2.5,2.3,4.9,3.4,8.2,3.4c3.2,0,5.3-1.7,5.3-4.1c0-2.3-1.2-3.5-6.2-4.6c-5.5-1.2-8-3-8-6.9c0-3.8,3.3-6.6,7.9-6.6   c3.5,0,6,1,8.4,2.9l-1.6,2.1c-2.2-1.8-4.4-2.6-6.9-2.6c-3.1,0-5.1,1.7-5.1,3.9C116,156.9,117.2,158.1,122.5,159.3z"/>
	<path fill="#FFFFFF" d="M158.8,173l-3.8-3.9c-2.2,2.4-4.7,3.7-7.8,3.7c-4.3,0-7.5-2.7-7.5-6.7c0-3.2,2.1-5.5,5.8-6.9   c-1.6-1.9-2.4-3.4-2.4-5.3c0-3.2,2.5-5.7,6.3-5.7c3.4,0,5.8,2.4,5.8,5.4c0,3.1-2.2,5-5.6,6.3l5.5,5.6c1.1-1.5,2-3.4,2.9-5.3l2.2,1   c-1.1,2.3-2.2,4.3-3.5,6l4.2,4.3L158.8,173z M146.9,160.9c-3.2,1.2-4.6,3.1-4.6,5.2c0,2.6,2.1,4.6,5,4.6c2.3,0,4.2-1.2,6-3.1   L146.9,160.9z M149.2,150.4c-2.2,0-3.6,1.5-3.6,3.5c0,1.4,0.6,2.5,2.4,4.5c3-1,4.6-2.5,4.6-4.6   C152.6,151.8,151.2,150.4,149.2,150.4z"/>
	<path fill="#FFFFFF" d="M8.5,198.9H2.7v8.5H0v-24h9c5.4,0,9,2.9,9,7.6C17.9,196.2,13.6,198.9,8.5,198.9z M8.8,185.9H2.7v10.5h5.9   c4,0,6.6-2.1,6.6-5.3C15.2,187.6,12.6,185.9,8.8,185.9z"/>
	<path fill="#FFFFFF" d="M42,207.3h-2.9l-2.8-6.3h-13l-2.8,6.3h-2.8l10.9-24.1h2.5L42,207.3z M29.8,186.3l-5.5,12.2h10.9L29.8,186.3   z"/>
	<path fill="#FFFFFF" d="M62.4,207.3l-6.9-9.3h-6.8v9.3h-2.7v-24h10.3c5.3,0,8.7,2.8,8.7,7.2c0,4-2.7,6.3-6.5,7l7.4,9.8H62.4z    M56,185.9h-7.4v9.7h7.4c3.6,0,6.2-1.8,6.2-5C62.1,187.6,59.8,185.9,56,185.9z"/>
	<path fill="#FFFFFF" d="M78.4,207.3h-2.7v-21.5h-8v-2.5h18.8v2.5h-8V207.3z"/>
	<path fill="#FFFFFF" d="M108.1,183.4h2.6v24h-2.2l-15.5-19.6v19.6h-2.6v-24H93l15.1,19.2V183.4z"/>
	<path fill="#FFFFFF" d="M133.2,185.8h-14.6v8.2h13.1v2.5h-13.1v8.4h14.8v2.5h-17.5v-24h17.3V185.8z"/>
	<path fill="#FFFFFF" d="M154.3,207.3l-6.9-9.3h-6.8v9.3h-2.7v-24h10.3c5.3,0,8.7,2.8,8.7,7.2c0,4-2.7,6.3-6.5,7l7.4,9.8H154.3z    M147.9,185.9h-7.4v9.7h7.4c3.6,0,6.2-1.8,6.2-5C154,187.6,151.7,185.9,147.9,185.9z"/>
	<path fill="#FFFFFF" d="M170.1,194c5.3,1.2,8.8,3.1,8.8,6.8c0,4.1-4.4,6.8-9.2,6.8c-3.8,0-6.9-1.3-9.8-3.8l1.7-2   c2.5,2.3,4.9,3.4,8.2,3.4c3.2,0,5.3-1.7,5.3-4.1c0-2.3-1.2-3.5-6.2-4.6c-5.5-1.2-8-3-8-6.9c0-3.8,3.3-6.6,7.9-6.6   c3.5,0,7,1,9.4,2.9l-2.6,2.1c-2.2-1.8-4.4-2.6-6.9-2.6c-3.1,0-5.1,1.7-5.1,3.9C163.6,191.6,164.9,192.9,170.1,194z"/>
</g>
<g>
	<polygon fill="#FFFFFF" points="53.7,5.3 53.7,5.3 53.7,15.9 24.2,15.9 24.2,5.3  "/>
	<polygon fill="#FFFFFF" points="24.2,3.3 24.2,3.3 38.9,0 53.7,3.3  "/>
	<polygon fill="#FFFFFF" points="53.7,17.7 49.5,21.4 28.4,21.4 24.2,17.7  "/>
	<rect x="29.3" y="23.2" fill="#FFFFFF" width="19.3" height="2.2"/>
	<polygon fill="#FFFFFF" points="154.9,5.3 154.9,5.1 154.9,15.9 125.4,15.9 125.4,5.3  "/>
	<polygon fill="#FFFFFF" points="125.4,3.3 125.4,3.3 140.1,0 154.9,3.3  "/>
	<polygon fill="#FFFFFF" points="154.9,17.7 150.7,21.4 129.6,21.4 125.4,17.7  "/>
	<rect x="130.4" y="23.2" fill="#FFFFFF" width="19.3" height="2.2"/>
	<rect x="30.3" y="27.2" fill="#FFFFFF" width="17.2" height="79"/>
	<rect x="26" y="107.9" fill="#FFFFFF" width="25.8" height="26.6"/>
	<rect x="131.5" y="27.2" fill="#FFFFFF" width="17.2" height="79"/>
	<rect x="127.2" y="107.9" fill="#FFFFFF" width="25.8" height="26.6"/>
	<g>
		<rect x="53.3" y="129.7" fill="#FFFFFF" width="72.4" height="2.6"/>
		<g>
			<rect x="54.2" y="38.1" fill="#FFFFFF" width="5.4" height="1.9"/>
			<rect x="55.7" y="41.2" fill="#FFFFFF" width="2.5" height="86.9"/>
			<g>
				<path fill="#FFFFFF" d="M59.7,32.3c-0.4-0.5-1.8-3-1.9-3.4h-1.6c-0.2,0.4-1.6,2.9-2,3.4l-0.3,0.5l0.3,0.5      c0.4,0.5,1.7,3.1,1.9,3.7h1.6c0.2-0.5,1.6-3.2,1.9-3.7l0.3-0.5L59.7,32.3z M56.9,34.9l-1.2-2.2l1.3-2.1l1.2,2.1L56.9,34.9z"/>
				<g>
					<path fill="#FFFFFF" d="M54.1,32.9v-0.4c1.1-0.4-0.4-2.2-0.4-2.2s-0.8,1-0.8,1.7c-0.7,0.1-1.5,0.8-1.5,0.8s0.9,0.7,1.5,0.8       c0.1,0.7,0.8,1.6,0.8,1.6S55.1,33.3,54.1,32.9z"/>
					<path fill="#FFFFFF" d="M59.8,32.5v0.4c-1.1,0.4,0.4,2.2,0.4,2.2s0.8-1,0.8-1.7c0.7-0.1,1.5-0.8,1.5-0.8s-0.9-0.7-1.5-0.8       c-0.1-0.7-0.8-1.6-0.8-1.6S58.7,32.1,59.8,32.5z"/>
				</g>
				<path fill="#FFFFFF" d="M59.4,28.1c0,0-1-0.8-1.7-0.8c-0.1-0.7-0.8-1.5-0.8-1.5s-0.7,0.9-0.8,1.5c-0.7,0.1-1.6,0.8-1.6,0.8      s1,0.8,1.7,0.8V29h1.4v-0.1C58.3,29,59.4,28.1,59.4,28.1z"/>
			</g>
			<rect x="70.5" y="38.1" fill="#FFFFFF" width="5.4" height="1.9"/>
			<rect x="71.9" y="41.2" fill="#FFFFFF" width="2.5" height="86.9"/>
			<g>
				<path fill="#FFFFFF" d="M76,32.3c-0.4-0.5-1.8-3-1.9-3.4h-1.6c-0.2,0.4-1.6,2.9-2,3.4l-0.3,0.5l0.3,0.5c0.4,0.5,1.7,3.1,1.9,3.7      H74c0.2-0.5,1.5-3.2,1.9-3.7l0.3-0.5L76,32.3z M73.2,34.9L72,32.7l1.3-2.1l1.2,2.1L73.2,34.9z"/>
				<path fill="#FFFFFF" d="M70.3,32.9v-0.4c1.1-0.4-0.4-2.2-0.4-2.2s-0.8,1-0.8,1.7c-0.7,0.1-1.5,0.8-1.5,0.8s0.9,0.7,1.5,0.8      c0.1,0.7,0.8,1.6,0.8,1.6S71.4,33.3,70.3,32.9z"/>
				<path fill="#FFFFFF" d="M76.1,32.5v0.4c-1.1,0.4,0.4,2.2,0.4,2.2s0.8-1,0.8-1.7c0.7-0.1,1.5-0.8,1.5-0.8S78,32,77.3,31.9      c-0.1-0.7-0.8-1.6-0.8-1.6S75,32.1,76.1,32.5z"/>
				<path fill="#FFFFFF" d="M75.7,28.1c0,0-1-0.8-1.7-0.8c-0.1-0.7-0.8-1.5-0.8-1.5s-0.7,0.9-0.8,1.5c-0.7,0.1-1.6,0.8-1.6,0.8      s1,0.8,1.7,0.8V29h1.4v-0.1C74.6,29,75.7,28.1,75.7,28.1z"/>
			</g>
			<rect x="86.8" y="38.1" fill="#FFFFFF" width="5.4" height="1.9"/>
			<rect x="88.2" y="41.2" fill="#FFFFFF" width="2.5" height="86.9"/>
			<g>
				<path fill="#FFFFFF" d="M92.2,32.3c-0.4-0.5-1.8-3-1.9-3.4h-1.6c-0.2,0.4-1.6,2.9-2,3.4l-0.3,0.5l0.3,0.5      c0.4,0.5,1.7,3.1,1.9,3.7h1.6c0.2-0.5,1.5-3.2,1.9-3.7l0.3-0.5L92.2,32.3z M89.5,34.9l-1.2-2.2l1.3-2.1l1.2,2.1L89.5,34.9z"/>
				<path fill="#FFFFFF" d="M86.6,32.9v-0.4c1.1-0.4-0.4-2.2-0.4-2.2s-0.8,1-0.8,1.7c-0.7,0.1-1.5,0.8-1.5,0.8s0.9,0.7,1.5,0.8      c0.1,0.7,0.8,1.6,0.8,1.6S87.7,33.3,86.6,32.9z"/>
				<path fill="#FFFFFF" d="M92.4,32.5v0.4c-1.1,0.4,0.4,2.2,0.4,2.2s0.8-1,0.8-1.7c0.7-0.1,1.5-0.8,1.5-0.8s-0.9-0.7-1.5-0.8      c-0.1-0.7-0.8-1.6-0.8-1.6S91.3,32.1,92.4,32.5z"/>
				<path fill="#FFFFFF" d="M91.9,28.1c0,0-1-0.8-1.7-0.8c-0.1-0.7-0.8-1.5-0.8-1.5s-0.7,0.9-0.8,1.5C88,27.3,87,28.1,87,28.1      s1,0.8,1.7,0.8V29h1.4v-0.1C90.9,29,91.9,28.1,91.9,28.1z"/>
			</g>
			<rect x="103.1" y="38.1" fill="#FFFFFF" width="5.4" height="1.9"/>
			<rect x="104.5" y="41.2" fill="#FFFFFF" width="2.5" height="86.9"/>
			<g>
				<path fill="#FFFFFF" d="M108.5,32.3c-0.4-0.5-1.8-3-1.9-3.4H105c-0.2,0.4-1.6,2.9-2,3.4l-0.3,0.5l0.3,0.5      c0.4,0.5,1.7,3.1,1.9,3.7h1.6c0.2-0.5,1.6-3.2,1.9-3.7l0.3-0.5L108.5,32.3z M105.8,34.9l-1.2-2.2l1.3-2.1l1.2,2.1L105.8,34.9z"/>
				<path fill="#FFFFFF" d="M102.9,32.9v-0.4c1.1-0.4-0.4-2.2-0.4-2.2s-0.8,1-0.8,1.7c-0.7,0.1-1.5,0.8-1.5,0.8s0.9,0.7,1.5,0.8      c0.1,0.7,0.8,1.6,0.8,1.6S103.9,33.3,102.9,32.9z"/>
				<path fill="#FFFFFF" d="M108.6,32.5v0.4c-1.1,0.4,0.4,2.2,0.4,2.2s0.8-1,0.8-1.7c0.7-0.1,1.5-0.8,1.5-0.8s-0.9-0.7-1.5-0.8      c-0.1-0.7-0.8-1.6-0.8-1.6S107.6,32.1,108.6,32.5z"/>
				<path fill="#FFFFFF" d="M108.2,28.1c0,0-1-0.8-1.7-0.8c-0.1-0.7-0.8-1.5-0.8-1.5s-0.7,0.9-0.8,1.5c-0.7,0.1-1.6,0.8-1.6,0.8      s1,0.8,1.7,0.8V29h1.4v-0.1C107.1,29,108.2,28.1,108.2,28.1z"/>
			</g>
			<rect x="119.3" y="38.1" fill="#FFFFFF" width="5.4" height="1.9"/>
			<rect x="120.8" y="41.2" fill="#FFFFFF" width="2.5" height="86.9"/>
			<g>
				<path fill="#FFFFFF" d="M124.8,32.3c-0.4-0.5-1.8-3-1.9-3.4h-1.6c-0.2,0.4-1.6,2.9-2,3.4l-0.3,0.5l0.3,0.5      c0.4,0.5,1.7,3.1,1.9,3.7h1.6c0.2-0.5,1.5-3.2,1.9-3.7l0.3-0.5L124.8,32.3z M122.1,34.9l-1.2-2.2l1.3-2.1l1.2,2.1L122.1,34.9z"/>
				<path fill="#FFFFFF" d="M119.2,32.9v-0.4c1.1-0.4-0.4-2.2-0.4-2.2s-0.8,1-0.8,1.7c-0.7,0.1-1.5,0.8-1.5,0.8s0.9,0.7,1.5,0.8      c0.1,0.7,0.8,1.6,0.8,1.6S120.2,33.3,119.2,32.9z"/>
				<path fill="#FFFFFF" d="M124.9,32.5v0.4c-1.1,0.4,0.4,2.2,0.4,2.2s0.8-1,0.8-1.7c0.7-0.1,1.5-0.8,1.5-0.8s-0.9-0.7-1.5-0.8      c-0.1-0.7-0.8-1.6-0.8-1.6S123.9,32.1,124.9,32.5z"/>
				<path fill="#FFFFFF" d="M124.5,28.1c0,0-1-0.8-1.7-0.8c-0.1-0.7-0.8-1.5-0.8-1.5s-0.7,0.9-0.8,1.5c-0.7,0.1-1.6,0.8-1.6,0.8      s1,0.8,1.7,0.8V29h1.4v-0.1C123.4,29,124.5,28.1,124.5,28.1z"/>
			</g>
			<rect x="59.7" y="43.2" fill="#FFFFFF" width="10.7" height="2.5"/>
			<g>
				<rect x="63.8" y="87.6" fill="#FFFFFF" width="2.5" height="40.6"/>
				<rect x="59.7" y="83.6" fill="#FFFFFF" width="10.7" height="2.6"/>
				<rect x="62.4" y="80.6" fill="#FFFFFF" width="5.4" height="1.9"/>
				<g>
					<path fill="#FFFFFF" d="M67.8,74.8c-0.4-0.5-1.8-3-1.9-3.4h-1.6c-0.2,0.4-1.6,2.9-2,3.4L62,75.3l0.3,0.5       c0.4,0.5,1.7,3.1,1.9,3.7h1.6c0.2-0.5,1.6-3.2,1.9-3.7l0.3-0.5L67.8,74.8z M65.1,77.4l-1.2-2.2l1.3-2.1l1.2,2.1L65.1,77.4z"/>
					<path fill="#FFFFFF" d="M62.2,75.4V75c1.1-0.4-0.4-2.2-0.4-2.2s-0.8,1-0.8,1.7c-0.7,0.1-1.5,0.8-1.5,0.8s0.9,0.7,1.5,0.8       c0.1,0.7,0.8,1.6,0.8,1.6S63.2,75.8,62.2,75.4z"/>
					<path fill="#FFFFFF" d="M67.9,75v0.4c-1.1,0.4,0.4,2.2,0.4,2.2s0.8-1,0.8-1.7c0.7-0.1,1.5-0.8,1.5-0.8s-0.9-0.7-1.5-0.8       c-0.1-0.7-0.8-1.6-0.8-1.6S66.9,74.6,67.9,75z"/>
					<path fill="#FFFFFF" d="M67.5,70.6c0,0-1-0.8-1.7-0.8c-0.1-0.7-0.8-1.5-0.8-1.5s-0.7,0.9-0.8,1.5c-0.7,0.1-1.6,0.8-1.6,0.8       s1,0.8,1.7,0.8v0.1h1.4v-0.1C66.4,71.5,67.5,70.6,67.5,70.6z"/>
				</g>
			</g>
			<rect x="76" y="43.2" fill="#FFFFFF" width="10.7" height="2.5"/>
			<g>
				<rect x="80.1" y="87.6" fill="#FFFFFF" width="2.5" height="40.6"/>
				<rect x="76" y="83.7" fill="#FFFFFF" width="10.7" height="2.5"/>
				<rect x="78.7" y="80.6" fill="#FFFFFF" width="5.4" height="1.9"/>
				<g>
					<path fill="#FFFFFF" d="M84.1,74.8c-0.4-0.5-1.8-3-1.9-3.4h-1.6c-0.2,0.4-1.6,2.9-2,3.4l-0.3,0.5l0.3,0.5       c0.4,0.5,1.7,3.1,1.9,3.7h1.6c0.2-0.5,1.5-3.2,1.9-3.7l0.3-0.5L84.1,74.8z M81.4,77.4l-1.2-2.2l1.3-2.1l1.2,2.1L81.4,77.4z"/>
					<path fill="#FFFFFF" d="M78.5,75.4V75c1.1-0.4-0.4-2.2-0.4-2.2s-0.8,1-0.8,1.7c-0.7,0.1-1.5,0.8-1.5,0.8s0.9,0.7,1.5,0.8       c0.1,0.7,0.8,1.6,0.8,1.6S79.5,75.8,78.5,75.4z"/>
					<path fill="#FFFFFF" d="M84.2,75v0.4c-1.1,0.4,0.4,2.2,0.4,2.2s0.8-1,0.8-1.7c0.7-0.1,1.5-0.8,1.5-0.8s-0.9-0.7-1.5-0.8       c-0.1-0.7-0.8-1.6-0.8-1.6S83.2,74.6,84.2,75z"/>
					<path fill="#FFFFFF" d="M83.8,70.6c0,0-1-0.8-1.7-0.8c-0.1-0.7-0.8-1.5-0.8-1.5s-0.7,0.9-0.8,1.5c-0.7,0.1-1.6,0.8-1.6,0.8       s1,0.8,1.7,0.8v0.1H82v-0.1C82.7,71.5,83.8,70.6,83.8,70.6z"/>
				</g>
			</g>
			<rect x="92.3" y="43.2" fill="#FFFFFF" width="10.7" height="2.5"/>
			<g>
				<rect x="96.4" y="87.6" fill="#FFFFFF" width="2.5" height="40.6"/>
				<rect x="92.3" y="83.7" fill="#FFFFFF" width="10.7" height="2.5"/>
				<rect x="94.9" y="80.6" fill="#FFFFFF" width="5.4" height="1.9"/>
				<g>
					<path fill="#FFFFFF" d="M100.4,74.8c-0.4-0.5-1.8-3-1.9-3.4h-1.6c-0.2,0.4-1.6,2.9-2,3.4l-0.3,0.5l0.3,0.5       c0.4,0.5,1.7,3.1,1.9,3.7h1.6c0.2-0.5,1.6-3.2,1.9-3.7l0.3-0.5L100.4,74.8z M97.6,77.4l-1.2-2.2l1.3-2.1l1.2,2.1L97.6,77.4z"/>
					<path fill="#FFFFFF" d="M94.7,75.4V75c1.1-0.4-0.4-2.2-0.4-2.2s-0.8,1-0.8,1.7c-0.7,0.1-1.5,0.8-1.5,0.8s0.9,0.7,1.5,0.8       c0.1,0.7,0.8,1.6,0.8,1.6S95.8,75.8,94.7,75.4z"/>
					<path fill="#FFFFFF" d="M100.5,75v0.4c-1.1,0.4,0.4,2.2,0.4,2.2s0.8-1,0.8-1.7c0.7-0.1,1.5-0.8,1.5-0.8s-0.9-0.7-1.5-0.8       c-0.1-0.7-0.8-1.6-0.8-1.6S99.4,74.6,100.5,75z"/>
					<path fill="#FFFFFF" d="M100.1,70.6c0,0-1-0.8-1.7-0.8c-0.1-0.7-0.8-1.5-0.8-1.5s-0.7,0.9-0.8,1.5c-0.7,0.1-1.6,0.8-1.6,0.8       s1,0.8,1.7,0.8v0.1h1.4v-0.1C99,71.5,100.1,70.6,100.1,70.6z"/>
				</g>
			</g>
			<rect x="108.6" y="43.2" fill="#FFFFFF" width="10.7" height="2.5"/>
			<g>
				<rect x="112.6" y="87.6" fill="#FFFFFF" width="2.5" height="40.6"/>
				<rect x="108.6" y="83.7" fill="#FFFFFF" width="10.7" height="2.5"/>
				<rect x="111.2" y="80.6" fill="#FFFFFF" width="5.4" height="1.9"/>
				<g>
					<path fill="#FFFFFF" d="M116.6,74.8c-0.4-0.5-1.8-3-1.9-3.4h-1.6c-0.2,0.4-1.6,2.9-2,3.4l-0.3,0.5l0.3,0.5       c0.4,0.5,1.7,3.1,1.9,3.7h1.6c0.2-0.5,1.6-3.2,1.9-3.7l0.3-0.5L116.6,74.8z M113.9,77.4l-1.2-2.2l1.3-2.1l1.2,2.1L113.9,77.4z"/>
					<path fill="#FFFFFF" d="M111,75.4V75c1.1-0.4-0.4-2.2-0.4-2.2s-0.8,1-0.8,1.7c-0.7,0.1-1.5,0.8-1.5,0.8s0.9,0.7,1.5,0.8       c0.1,0.7,0.8,1.6,0.8,1.6S112.1,75.8,111,75.4z"/>
					<path fill="#FFFFFF" d="M116.8,75v0.4c-1.1,0.4,0.4,2.2,0.4,2.2s0.8-1,0.8-1.7c0.7-0.1,1.5-0.8,1.5-0.8s-0.9-0.7-1.5-0.8       c-0.1-0.7-0.8-1.6-0.8-1.6S115.7,74.6,116.8,75z"/>
					<path fill="#FFFFFF" d="M116.4,70.6c0,0-1-0.8-1.7-0.8c-0.1-0.7-0.8-1.5-0.8-1.5s-0.7,0.9-0.8,1.5c-0.7,0.1-1.6,0.8-1.6,0.8       s1,0.8,1.7,0.8v0.1h1.4v-0.1C115.3,71.5,116.4,70.6,116.4,70.6z"/>
				</g>
			</g>
		</g>
	</g>
</g>
</svg>