<svg width="297" height="297" xmlns="http://www.w3.org/2000/svg" xml:space="preserve" version="1.1">

 <g>
  <title>Layer 1</title>
  <g id="svg_1">
   <path stroke="#fff" fill="#ffffff" id="svg_2" d="m205.172,195.607l-37.865,-37.867c-9.854,9.345 -20.079,17.559 -30.18,24.355l33.452,33.453c12.427,-4.191 24.21,-10.838 34.593,-19.941z"/>
   <path stroke="#fff" fill="#ffffff" id="svg_3" d="m84.445,129.411l42.88,42.881c10.072,-6.596 20.426,-14.793 30.354,-24.181l-49.011,-49.013c-9.763,10.302 -17.844,20.576 -24.223,30.313z"/>
   <path stroke="#fff" fill="#ffffff" id="svg_4" d="m70.537,186.242c2.505,2.506 6.39,3.775 11.549,3.775c9.109,0 20.676,-3.81 33.183,-10.533l-38.022,-38.024c-11.237,20.938 -13.573,37.92 -6.71,44.782z"/>
   <path stroke="#fff" fill="#ffffff" id="svg_5" d="m234.742,151.39l-33.425,-33.425c-6.845,10.151 -15.088,20.352 -24.389,30.147l37.868,37.87c9.105,-10.382 15.753,-22.164 19.946,-34.592z"/>
   <path stroke="#fff" fill="#ffffff" id="svg_6" d="m99.042,89.472l-37.868,-37.87c-9.104,10.384 -15.751,22.166 -19.943,34.595l33.424,33.424c6.844,-10.153 15.087,-20.352 24.387,-30.149z"/>
   <path stroke="#fff" fill="#ffffff" id="svg_7" d="m208.694,106.093l29.937,29.937c4.364,-25.408 -0.916,-52.133 -15.84,-74.291c0.218,8.408 -1.994,18.337 -6.651,29.377c-2.064,4.893 -4.564,9.907 -7.446,14.977z"/>
   <path stroke="#fff" fill="#ffffff" id="svg_8" d="m195.015,33.972c-22.153,-14.911 -48.867,-20.188 -74.266,-15.826l29.97,29.971c15.929,-9.048 32.139,-14.145 44.296,-14.145z"/>
   <path stroke="#fff" fill="#ffffff" id="svg_9" d="m155.218,219.435l-29.966,-29.968c-15.927,9.045 -31.012,14.161 -43.166,14.161c-0.379,0 -0.749,-0.012 -1.121,-0.021c22.148,14.91 48.859,20.187 74.253,15.828z"/>
   <path stroke="#fff" fill="#ffffff" id="svg_10" d="m59.838,146.464c2.063,-4.892 4.561,-9.903 7.44,-14.971l-29.935,-29.937c-4.362,25.405 0.922,52.127 15.845,74.283c-0.219,-8.407 1.993,-18.336 6.65,-29.375z"/>
   <path stroke="#fff" fill="#ffffff" id="svg_11" d="m138.844,55.49l-33.454,-33.456c-12.428,4.192 -24.21,10.84 -34.594,19.943l37.867,37.869c9.854,-9.346 20.08,-17.56 30.181,-24.356z"/>
   <path stroke="#fff" fill="#ffffff" id="svg_12" d="m160.702,58.099l38.025,38.026c11.241,-20.94 13.578,-37.926 6.715,-44.788c-2.503,-2.505 -6.39,-3.775 -11.549,-3.775c-9.111,0 -20.68,3.811 -33.191,10.537z"/>
   <path stroke="#fff" fill="#ffffff" id="svg_13" d="m191.527,108.174l-42.881,-42.882c-10.072,6.596 -20.427,14.793 -30.355,24.181l49.012,49.014c9.763,-10.302 17.844,-20.576 24.224,-30.313z"/>
   <path stroke="#fff" fill="#ffffff" id="svg_14" d="m236.516,217.318c52.524,-52.524 54.385,-136.793 5.552,-191.442l9.279,-9.278c3.797,-3.797 3.797,-9.953 0,-13.75c-3.798,-3.796 -9.952,-3.796 -13.75,0l-16.041,16.042c-3.797,3.796 -3.797,9.952 0,13.749c46.747,46.747 48.03,124.111 1.21,170.931c-22.681,22.683 -52.824,35.187 -84.876,35.21c-0.03,0 -0.058,0 -0.087,0c-32.014,-0.002 -62.499,-14.976 -86.3,-36.355c-3.648,-3.277 -9.419,-2.846 -12.966,0.699l-16.042,16.041c-3.797,3.797 -3.797,9.953 0,13.75c1.899,1.898 4.387,2.848 6.875,2.848s4.976,-0.949 6.875,-2.848l9.473,-9.473c23.971,21.185 54.08,33.314 86.142,34.649l0,19.466l-33.081,0c-5.369,0 -9.722,4.353 -9.722,9.723c0,5.369 4.353,9.722 9.722,9.722l85.609,0c5.368,0 9.722,-4.352 9.722,-9.722c0,-5.369 -4.354,-9.723 -9.722,-9.723l-33.083,0l0,-19.98c32.183,-3.073 62.048,-17.095 85.211,-40.259z"/>
  </g>
  <g id="svg_15"/>
  <g id="svg_16"/>
  <g id="svg_17"/>
  <g id="svg_18"/>
  <g id="svg_19"/>
  <g id="svg_20"/>
  <g id="svg_21"/>
  <g id="svg_22"/>
  <g id="svg_23"/>
  <g id="svg_24"/>
  <g id="svg_25"/>
  <g id="svg_26"/>
  <g id="svg_27"/>
  <g id="svg_28"/>
  <g id="svg_29"/>
 </g>
</svg>