<svg width="40.86" height="43.16100000000001" xmlns="http://www.w3.org/2000/svg">

 <g>
  <title>Layer 1</title>
  <path fill="#FFFFFF" stroke-width="0.37069" d="m27.49167,9.57016l-0.29656,0l0,-6.22758c0.25949,0.63017 0.29656,1.26034 0.29656,1.77931l0,4.44827zm-11.78794,-2.48362c0.37069,0.11121 0.77845,0.18535 1.22328,0.22241l0,-0.29655c-0.37069,-0.0371 -0.77845,-0.1112 -1.14914,-0.22241c-0.48189,-0.11121 -0.92672,-0.22241 -1.37155,-0.22241c-0.22241,0 -0.44483,0.0371 -0.63017,0.1112l0,0.33362c0.14827,-0.0741 0.37069,-0.1112 0.63017,-0.1112c0.40776,-0.0371 0.85259,0.0741 1.29741,0.18534zm-3.59569,-0.22241c0.25949,0 0.4819,0.0371 0.63018,0.1112l0,-0.33362c-0.18535,-0.0741 -0.40776,-0.1112 -0.63018,-0.1112c-0.44482,0 -0.88965,0.1112 -1.37155,0.22241c-0.37069,0.11121 -0.74138,0.18534 -1.14913,0.22241l0,0.29656c0.40775,-0.0371 0.81551,-0.11121 1.22327,-0.22242c0.4819,-0.0741 0.88966,-0.18534 1.29741,-0.18534zm0,-0.74138c0.25949,0 0.4819,0.0741 0.63018,0.1112l0,-0.33362c-0.18535,-0.0741 -0.40776,-0.0741 -0.63018,-0.1112c-0.44482,0 -0.88965,0.1112 -1.37155,0.22241c-0.37069,0.11121 -0.74138,0.18535 -1.14913,0.22241l0,0.29656c0.44482,-0.0371 0.81551,-0.11121 1.22327,-0.22242c0.4819,-0.1112 0.88966,-0.22241 1.29741,-0.18534zm0,1.51983c0.25949,0 0.4819,0.0371 0.63018,0.1112l0,-0.33362c-0.18535,-0.0741 -0.40776,-0.0741 -0.63018,-0.11121c-0.44482,0 -0.88965,0.11121 -1.37155,0.22242c-0.37069,0.11121 -0.74138,0.18534 -1.14913,0.22241l0,0.29655c0.44482,-0.0371 0.81551,-0.14827 1.22327,-0.22241c0.4819,-0.11121 0.88966,-0.22241 1.29741,-0.18534zm0,-2.29828c0.25949,0 0.4819,0.0741 0.63018,0.11121l0,-0.33362c-0.18535,-0.0741 -0.40776,-0.11121 -0.63018,-0.11121c-0.44482,0 -0.88965,0.11121 -1.37155,0.22241c-0.37069,0.11121 -0.74138,0.18535 -1.14913,0.22242l0,0.29655c0.40775,-0.0371 0.81551,-0.11121 1.22327,-0.22242c0.4819,-0.0741 0.88966,-0.18534 1.29741,-0.18534zm-2.00172,22.68621c-3.66983,-6.04225 -3.59569,-11.93621 -3.59569,-12.67759l0,-14.27155l27.80173,0l0,14.27155c0,0.74138 0.0741,6.63534 -3.59569,12.67759c-3.26207,5.4862 -8.19225,7.89569 -10.30518,8.63707c-2.07586,-0.74138 -7.00603,-3.15087 -10.30517,-8.63707zm7.41379,-1.11207l-0.74138,-0.59311l0.40776,-0.88965l-0.96379,0.18534l-0.40776,-0.85258l-0.44483,0.85258l-0.92672,-0.18534l0.40776,0.88965l-0.74138,0.59311l0.92672,0.22241l0,0.96379l0.77845,-0.5931l0.74138,0.5931l0,-0.96379l0.96379,-0.22241zm3.96638,6.04224l0.92673,-0.44483l-0.92673,-0.40776l0.33362,-0.96379l-0.96379,0.37069l-0.40776,-0.92672l-0.40776,0.88965l-0.96379,-0.37069l0.37069,0.96379l-0.92672,0.40776l0.92672,0.44483l-0.37069,0.96379l0.96379,-0.37069l0.40776,0.92673l0.40776,-0.92673l0.96379,0.37069l-0.33362,-0.92672zm-2.03879,-11.04655l-0.74138,0.63017l0.92672,0.22241l0,0.9638l0.74138,-0.59311l0.77845,0.59311l0.0371,-0.9638l0.92673,-0.22241l-0.74138,-0.63017l0.40776,-0.88966l-0.9638,0.18535l-0.40776,-0.85259l-0.40775,0.85259l-0.9638,-0.18535l0.40773,0.88966zm3.26207,6.07931l0.55603,-0.59311l-0.81551,-0.14827l-0.37069,-0.74138l-0.37069,0.74138l-0.81552,0.14827l0.5931,0.59311l-0.14827,0.81551l0.74138,-0.37068l0.74138,0.37068l-0.11121,-0.81551zm2.7431,-2.92845l0.44483,-0.74138l-0.85259,0l-0.40775,-0.74138l-0.40776,0.74138l-0.85259,0l0.44483,0.74138l-0.44483,0.74138l0.85259,0l0.40776,0.74138l0.40775,-0.74138l0.85259,0l-0.44483,-0.74138zm6.52414,-17.86724c-0.22241,0.1112 -0.40776,0.29655 -0.51896,0.51896c-0.11121,0.18535 -0.14828,0.37069 -0.14828,0.55604c0,0.0371 0,0.0741 0,0.14827c0.11121,-0.0741 0.22241,-0.14827 0.33362,-0.22241c0.0741,-0.0741 0.14828,-0.18535 0.22241,-0.25948c0.0741,-0.14828 0.11121,-0.37069 0.11121,-0.55604c0,-0.0741 0,-0.14827 0,-0.18534zm-2.89138,4.26293c0.22241,0.11121 0.4819,0.14827 0.74138,0.11121c0.25948,-0.0371 0.44483,-0.14828 0.63017,-0.33363c-0.22241,-0.1112 -0.44482,-0.14827 -0.70431,-0.1112c-0.25948,0.0371 -0.48189,0.18534 -0.66724,0.33362zm0,-0.40776c0.11121,-0.18534 0.18535,-0.40776 0.18535,-0.63017c0,-0.0371 0,-0.0371 0,-0.0741c-0.22242,0.11121 -0.40776,0.25948 -0.55604,0.44483l0,0c-0.11121,0.18534 -0.18534,0.40776 -0.18534,0.63017c0,0.0371 0,0.0371 0,0.0741c0.25948,-0.0741 0.44482,-0.22241 0.55603,-0.44483zm0.29655,-0.0741c0,0 0,0.0371 0,0c0.0741,0 0.11121,0 0.14828,-0.0371c0.14827,-0.11121 0.22241,-0.25948 0.29655,-0.44483c0.0371,-0.1112 0.0741,-0.25948 0.0741,-0.37069c0,-0.1112 -0.0371,-0.22241 -0.0741,-0.33362c-0.14828,0.11121 -0.25948,0.22242 -0.33362,0.37069c0,0.33362 -0.0371,0.59311 -0.11121,0.81552l0,0.00003zm0.70431,-0.5931c0,0.0371 0,0.0371 0,0c0.0741,0 0.11121,-0.0371 0.14828,-0.0741c0.11121,-0.14828 0.14828,-0.29655 0.18534,-0.4819c0,-0.0371 0,-0.0741 0,-0.1112c0,-0.18535 -0.0741,-0.40776 -0.18534,-0.59311c-0.11121,0.14828 -0.22241,0.29655 -0.25948,0.44483c0.1112,0.33362 0.14827,0.55603 0.1112,0.81552l0,-0.00004zm0.51897,-0.74138c0,0.0371 0,0.0371 0,0c0.0741,0 0.11121,-0.0371 0.14827,-0.11121c0.0371,-0.11121 0.0741,-0.22241 0.0741,-0.37069c0,-0.0371 0,-0.11121 0,-0.14828c-0.0371,-0.22241 -0.14827,-0.44482 -0.33362,-0.63017c-0.0741,0.14828 -0.1112,0.33362 -0.1112,0.4819c0.1112,0.29655 0.18534,0.51896 0.22241,0.77845l0.00004,0zm0.37069,-0.85259c0,0.0371 0,0.0371 0,0c0.0741,-0.0371 0.0741,-0.0741 0.11121,-0.14827c0,-0.0371 0,-0.0371 0,-0.0741c0,-0.14828 -0.0371,-0.29655 -0.0741,-0.44483c-0.0741,-0.22241 -0.25949,-0.37069 -0.4819,-0.51897c-0.0371,0.0741 -0.0371,0.18535 -0.0371,0.25949c0,0.0741 0,0.14827 0.0371,0.22241c0.22241,0.25948 0.37069,0.4819 0.44483,0.70431l-0.00004,-0.00004zm0.14827,-0.88965c0,0 0,0 0,0c0.0371,-0.0371 0.0741,-0.11121 0.0741,-0.14828c-0.0371,-0.18534 -0.0741,-0.33362 -0.18534,-0.4819c-0.14828,-0.18534 -0.33362,-0.33362 -0.5931,-0.40776c0,0.18535 0.0371,0.37069 0.1112,0.51897c0.25949,0.11121 0.44483,0.29655 0.59311,0.51897l0.00003,0zm-0.0371,-1.075c-0.0741,-0.18535 -0.14827,-0.33362 -0.29655,-0.44483c-0.18534,-0.14828 -0.37069,-0.22242 -0.63017,-0.25948c0.0371,0.18534 0.11121,0.33362 0.22241,0.44482c0.25949,0.0741 0.4819,0.22242 0.66725,0.37069c0,0 0.0371,0 0.0371,0c0,0 0,-0.0371 0,-0.1112l-0.00004,0zm-0.29655,-0.70431c0,-0.0741 -0.0371,-0.11121 -0.0371,-0.18535c-0.1112,-0.14827 -0.22241,-0.25948 -0.37069,-0.33362c-0.22241,-0.1112 -0.44482,-0.14827 -0.70431,-0.1112c0.11121,0.14827 0.18535,0.29655 0.33362,0.40775c0.29656,0 0.55604,0.0741 0.77845,0.22242c0,0 0,0 0,0l0.00003,0zm-0.14827,4.74483c0.22241,-0.0741 0.40776,-0.25949 0.55603,-0.4819c-0.25948,-0.0371 -0.51896,-0.0371 -0.74138,0.0371c-0.18534,0.0741 -0.37069,0.25948 -0.51896,0.44483c0.1112,0 0.25948,0.0371 0.37069,0.0741c0.1112,0 0.22241,0 0.33362,-0.0741l0,-0.00003zm0.63017,-0.85259c0.18535,-0.14828 0.33362,-0.37069 0.44483,-0.63017c-0.25948,0 -0.51897,0.0741 -0.70431,0.22241l0,0c-0.18535,0.14828 -0.33362,0.33362 -0.40776,0.55603c0.11121,-0.0371 0.25948,-0.0371 0.37069,-0.0371c0.11121,0 0.22241,-0.0371 0.29655,-0.11121l0,0.00004zm0.66724,-1.70517c-0.22241,0.0741 -0.44483,0.18534 -0.63017,0.37069c-0.14828,0.18534 -0.22241,0.40775 -0.25948,0.66724c0.1112,-0.0371 0.22241,-0.0741 0.37069,-0.11121c0.1112,-0.0741 0.18534,-0.14828 0.25948,-0.22241c0.18534,-0.18535 0.25948,-0.44483 0.25948,-0.70431zm-0.22241,-2.22414c-0.18535,0.18534 -0.33362,0.37069 -0.40776,0.63017c-0.0371,0.0741 -0.0371,0.18535 -0.0371,0.29655c0,0.14828 0.0371,0.29655 0.0741,0.40776c0.0741,-0.11121 0.18534,-0.18534 0.25948,-0.25948c0.0741,-0.11121 0.11121,-0.22242 0.14828,-0.33362c0.0371,-0.0741 0.0371,-0.18535 0.0371,-0.25948c0.0371,-0.14828 0,-0.29656 -0.0741,-0.4819zm-0.74138,-0.29655c0,0.22241 0.0741,0.44482 0.22241,0.66724c0.0371,-0.11121 0.11121,-0.22242 0.18535,-0.33362c0.0371,-0.11121 0.0741,-0.22242 0.0741,-0.33362c0,0 0,0 0,0c0,-0.25949 -0.0741,-0.4819 -0.22242,-0.70431c-0.14827,0.22241 -0.25948,0.44482 -0.25948,0.70431c0,0 0,0 0,0l0.00004,0zm-0.5931,-1.075c0,0.0741 0,0.18534 0.0371,0.25948c0.0371,0.22241 0.18534,0.40776 0.37069,0.5931c0.0371,-0.1112 0.0741,-0.25948 0.1112,-0.37069c0,-0.0371 0,-0.0371 0,-0.0741c0,-0.0741 0,-0.14828 -0.0371,-0.25949c-0.0741,-0.22241 -0.18534,-0.44482 -0.40776,-0.63017c-0.0371,0.14828 -0.0741,0.29655 -0.0741,0.4819l-0.00003,-0.00003zm-0.11121,0.44482c-0.14828,-0.1112 -0.29655,-0.18534 -0.44483,-0.25948c-0.22241,-0.0741 -0.4819,-0.0371 -0.70431,0.0371c0.11121,0.14828 0.25948,0.25948 0.40776,0.33362c0.25948,-0.0371 0.55603,-0.0371 0.77845,0.0371c0,0 0.0371,0 0.0371,0c-0.0371,-0.0371 -0.0371,-0.0741 -0.0741,-0.14828l-0.00007,-0.00006zm-0.70431,-1.40862c0,0.18535 0.0371,0.37069 0.1112,0.55604c0.11121,0.22241 0.29656,0.37069 0.51897,0.48189c0,-0.14827 0,-0.25948 0.0371,-0.40775c-0.0371,-0.11121 -0.0371,-0.22242 -0.11121,-0.29656c-0.1112,-0.22241 -0.29655,-0.40775 -0.51896,-0.51896c-0.0371,0.0741 -0.0371,0.11121 -0.0371,0.18534zm-0.9638,0.0741c0.0741,0.25948 0.22242,0.4819 0.40776,0.59311c0.18535,0.1112 0.40776,0.18534 0.63018,0.22241c-0.0741,-0.0741 -0.11121,-0.14828 -0.18535,-0.25948l0,0c-0.0371,-0.0741 -0.0741,-0.18535 -0.11121,-0.25949c-0.0371,-0.0371 -0.0371,-0.0371 -0.0741,-0.0741c-0.14827,-0.14828 -0.37069,-0.22242 -0.66724,-0.22242l-0.00004,-0.00003zm-2.89137,5.81983c0,0.18534 0.14827,0.40776 0.48189,0.40776l0.63017,0c-0.0741,0.22241 -0.14827,0.55603 -0.14827,0.88965c0,0.44483 0.0741,0.81552 0.22241,1.075c-0.48189,-0.0741 -0.81552,-0.18534 -1.14914,-0.37069l-0.0371,0l-0.0741,0.18535l0.0371,0c0.29656,0.14827 0.55604,0.22241 0.88966,0.33362c0,0 0.25948,0.0371 0.44483,0.0741c-0.0371,0.0371 -0.0741,0.11121 -0.0741,0.18534c0,0.14828 0.1112,0.25949 0.25948,0.25949c0.14828,0 0.25948,-0.11121 0.25948,-0.25949c0,-0.0741 -0.0371,-0.14827 -0.0741,-0.18534c0.18535,-0.0371 0.40776,-0.0741 0.40776,-0.0741c0.33362,-0.0741 0.63017,-0.14828 0.92673,-0.33362l0.0371,0l-0.0741,-0.22242l-0.0371,0c-0.33363,0.18535 -0.66725,0.29656 -1.14914,0.37069c0.1112,-0.25948 0.22241,-0.63017 0.22241,-1.075c0,-0.33362 -0.0371,-0.66724 -0.14827,-0.88965l0.63017,0c0.33362,0 0.48189,-0.18535 0.48189,-0.40776c0,-0.14828 -0.1112,-0.29655 -0.29655,-0.29655c-0.14827,0 -0.29655,0.11121 -0.29655,0.29655c0,0.0371 0,0.0741 0.0371,0.11121c0.0371,0.0371 0.0371,0.1112 -0.0741,0.1112l-0.37069,0l0,-4.70775c0,-0.63018 -0.0371,-1.40863 -0.40776,-2.15l-0.1112,-0.22242l-0.11121,0.22242c-0.37069,0.74137 -0.40776,1.51982 -0.40776,2.15l0,4.70775l-0.37069,0c-0.11121,0 -0.0741,-0.0741 -0.0741,-0.1112c0,-0.0371 0.0371,-0.0741 0.0371,-0.11121c0,-0.14828 -0.11121,-0.29655 -0.25948,-0.29655c-0.11121,0.0371 -0.25948,0.18534 -0.25948,0.33362l-0.00029,0zm-0.77845,0.55603c-0.0741,-0.14827 -0.18535,-0.25948 -0.33362,-0.37069c-0.0371,0.11121 -0.0741,0.22242 -0.0741,0.33362c0,0.11121 0.0371,0.25949 0.0741,0.37069c0.0371,0.18535 0.14827,0.29656 0.25948,0.44483c0.0371,0 0.11121,0.0371 0.14827,0.0371c0,0 0,-0.0371 0,-0.0371c-0.0741,-0.22241 -0.1112,-0.48189 -0.0741,-0.77845l-0.00003,0zm-0.22242,-4.70775c-0.22241,-0.0371 -0.48189,0 -0.70431,0.1112c-0.14827,0.0741 -0.29655,0.18535 -0.37069,0.33362c0,0.0741 0,0.11121 -0.0371,0.18535c0,0 0.0371,0 0.0371,0c0.22242,-0.14828 0.4819,-0.22242 0.77845,-0.22242c0.11121,-0.1112 0.22242,-0.25948 0.29655,-0.40775zm-0.25948,4.11465c-0.0371,-0.14828 -0.14828,-0.29655 -0.25948,-0.44483c-0.11121,0.18535 -0.18535,0.37069 -0.18535,0.59311c0,0.0371 0,0.0741 0,0.1112c0,0.18535 0.0741,0.33362 0.18535,0.4819c0.0371,0.0371 0.1112,0.0741 0.14827,0.11121c0,0 0,-0.0371 0,-0.0371c-0.0371,-0.29655 0,-0.51897 0.11121,-0.81552l0,0.00003zm-0.85259,-0.40776c0,0.11121 0.0371,0.22242 0.0741,0.37069c0.0371,0.0371 0.0741,0.0741 0.11121,0.11121c0,0 0,-0.0371 0.0371,-0.0371c0.0371,-0.25948 0.11121,-0.51897 0.25948,-0.74138c0,-0.18534 -0.0741,-0.33362 -0.14827,-0.4819c-0.18535,0.18535 -0.29655,0.40776 -0.33362,0.63018c0,0.0371 0,0.1112 0,0.14827l0,0.00003zm0.29656,-1.03793c0.0371,-0.0741 0.0371,-0.14828 0.0371,-0.22241c0,-0.0741 -0.0371,-0.18535 -0.0371,-0.25949c-0.22242,0.14828 -0.37069,0.29656 -0.4819,0.51897c-0.0741,0.14828 -0.0741,0.29655 -0.0741,0.44483c0,0.0371 0,0.0371 0,0.0741c0.0371,0.0371 0.0741,0.1112 0.0741,0.14827c0,0 0.0371,0 0.0371,-0.0371c0.0741,-0.25948 0.22241,-0.48189 0.44483,-0.66724l-0.00003,0.00007zm-0.55604,-1.33448c0,0.0371 0,0.1112 0,0.14827c0,0 0.0371,0 0.0371,0c0.18535,-0.18534 0.40776,-0.29655 0.66724,-0.37069c0.11121,-0.14827 0.18535,-0.29655 0.22242,-0.44482c-0.25949,0.0371 -0.4819,0.1112 -0.66724,0.25948c-0.11121,0.0741 -0.22242,0.25948 -0.25949,0.40776l-0.00003,0zm-0.11121,0.92672c0.0371,0.0371 0.0371,0.11121 0.0371,0.18535c0,0 0,0 0.0371,0c0.14828,-0.22242 0.33363,-0.40776 0.59311,-0.51897c0.0741,-0.14827 0.1112,-0.33362 0.1112,-0.51896c-0.25948,0.0741 -0.44482,0.22241 -0.5931,0.40775c-0.11121,0.11121 -0.18534,0.25949 -0.18534,0.44483l-0.00007,0zm-0.14827,0.92673c-0.14828,-0.18535 -0.37069,-0.29656 -0.63017,-0.37069c0.0371,0.25948 0.1112,0.48189 0.25948,0.66724c0.0741,0.0741 0.18534,0.14827 0.25948,0.22241c0.11121,0.0371 0.22242,0.0741 0.33362,0.11121c0,-0.22242 -0.0741,-0.44483 -0.22241,-0.63017zm-0.37069,0.70431c0.0741,0.25948 0.22241,0.48189 0.40776,0.63017c0.0741,0.0741 0.18534,0.11121 0.29655,0.14827c0.14828,0 0.25948,0 0.37069,0.0371c-0.11121,-0.22241 -0.22241,-0.44482 -0.40776,-0.55603l0,0c-0.14828,-0.18535 -0.40776,-0.25948 -0.66724,-0.25948l0,-0.00003zm0.51896,1.03793c0.14828,0.22241 0.29656,0.37069 0.55604,0.48189c0.11121,0.0371 0.22241,0.0741 0.33362,0.0741c0.11121,-0.0371 0.25948,-0.0371 0.37069,-0.0741c-0.14828,-0.18534 -0.33362,-0.37069 -0.51897,-0.44482c-0.22241,-0.11121 -0.48189,-0.11121 -0.74138,-0.0371l0,0.00003zm0.74138,0.85258c0.18535,0.18535 0.40776,0.29656 0.66725,0.33362c0.22241,0.0371 0.48189,-0.0371 0.70431,-0.1112c-0.18535,-0.18535 -0.40776,-0.29655 -0.66725,-0.33362l0,0c-0.22241,-0.0741 -0.48189,0 -0.70431,0.1112zm1.92759,0.22242c0,-0.0371 0,-0.0371 0,-0.0741c0,-0.22242 -0.0741,-0.44483 -0.18534,-0.63017l0,0c-0.14828,-0.18535 -0.33363,-0.33363 -0.55604,-0.44483c0,0.0371 0,0.0371 0,0.0741c0,0.22241 0.0741,0.44482 0.18535,0.63017c0.1112,0.22241 0.29655,0.37069 0.55603,0.44483zm-0.96379,-7.11724c-0.0371,0.0741 -0.11121,0.18534 -0.18535,0.25948c0.22242,0 0.44483,-0.0741 0.63017,-0.22241c0.18535,-0.14828 0.33363,-0.37069 0.44483,-0.59311c-0.25948,0 -0.51896,0.0741 -0.70431,0.22242c-0.0371,0.0371 -0.0371,0.0371 -0.0741,0.0741c-0.0371,0.0741 -0.0741,0.18535 -0.1112,0.25949l-0.00004,0.00003zm-0.74138,0c0.0371,0.14827 0.0371,0.25948 0.0371,0.40775c0.22241,-0.1112 0.40776,-0.29655 0.48189,-0.48189c0.11121,-0.18535 0.14828,-0.37069 0.14828,-0.55604c0,-0.0741 0,-0.1112 -0.0371,-0.18534c-0.22241,0.11121 -0.40776,0.29655 -0.51897,0.51896c-0.0371,0.11121 -0.0741,0.18535 -0.1112,0.29656zm-0.11121,0.96379c0,0 0.0371,0 0,0c0.29655,-0.0741 0.55604,-0.0741 0.81552,-0.0371c0.14827,-0.0741 0.29655,-0.18534 0.40776,-0.33362c-0.22242,-0.0741 -0.4819,-0.11121 -0.70431,-0.0371c-0.18535,0.0371 -0.33362,0.11121 -0.44483,0.25948c-0.0371,0.0371 -0.0371,0.0741 -0.0741,0.14828l-0.00004,0.00006zm-0.5931,-0.22241c0,0.0371 0,0.0371 0,0.0741c0.0741,0.11121 0.1112,0.25949 0.1112,0.37069c0.18535,-0.18534 0.29656,-0.37069 0.37069,-0.5931c0.0371,-0.0741 0.0371,-0.18535 0.0371,-0.25948c0,-0.14828 -0.0371,-0.33362 -0.1112,-0.4819c-0.18535,0.18535 -0.33362,0.37069 -0.40776,0.63017c0.0371,0.0741 0,0.14828 0,0.25949l-0.00003,0.00003zm-0.51897,0.66724c0,0.1112 0.0371,0.22241 0.0741,0.33362c0.0741,0.1112 0.14828,0.22241 0.18535,0.33362c0.1112,-0.18535 0.22241,-0.40776 0.22241,-0.66724c0,0 0,0 0,0c0,-0.22242 -0.11121,-0.4819 -0.22241,-0.70431c-0.14828,0.22241 -0.25949,0.44482 -0.25949,0.70431c0,0 0,0 0,0l0.00004,0zm-0.37069,0.77845c0,0.1112 0,0.18534 0.0371,0.25948c0.0371,0.1112 0.0741,0.22241 0.14828,0.33362c0.1112,0.0741 0.18534,0.14827 0.25948,0.25948c0.0371,-0.14827 0.0741,-0.29655 0.0741,-0.40776c0,-0.1112 0,-0.18534 -0.0371,-0.29655c-0.0741,-0.22241 -0.22241,-0.44483 -0.40776,-0.63017c-0.0371,0.14827 -0.0741,0.33362 -0.0741,0.4819zm-0.18534,0.77844c0,0.18535 0.0371,0.40776 0.14827,0.55604c0.0371,0.1112 0.11121,0.18534 0.22242,0.25948c0.1112,0.0371 0.22241,0.11121 0.33362,0.18535c0,-0.0371 0,-0.11121 0,-0.14828c0,-0.18535 -0.0371,-0.37069 -0.14828,-0.55603c-0.11121,-0.22242 -0.29655,-0.40776 -0.55603,-0.51897c0,0.11121 0,0.18534 0,0.22241zm-9.00776,2.92845c0.25948,-0.18534 0.5931,-0.25948 1.00086,-0.25948c0.44483,0 0.88966,0.0741 1.37155,0.22241c0.4819,0.11121 1.03793,0.25949 1.5569,0.22242c0,-0.25949 0,-5.44914 0,-6.41293c0,-0.0741 0,-0.11121 0,-0.14828c-0.55604,0.0371 -1.11207,-0.11121 -1.63104,-0.22241c-0.44482,-0.11121 -0.88965,-0.22242 -1.26034,-0.18535c-0.55603,0 -0.85259,0.18535 -1.03793,0.33362l0,0.22242l0,6.22758zm-4.18879,0.14828c0.51896,0.0371 1.03793,-0.0741 1.55689,-0.22242c0.4819,-0.1112 0.92673,-0.22241 1.37155,-0.22241c0.40776,0 0.74138,0.11121 1.00087,0.25948l0,-6.19051l0,-0.22242c-0.18535,-0.18534 -0.4819,-0.33362 -1.03794,-0.33362c-0.40775,0 -0.81551,0.0741 -1.26034,0.18535c-0.51897,0.14827 -1.03793,0.25948 -1.63103,0.22241c0,0.0371 0,0.0741 0,0.14828c0,0.92672 0,6.15344 0,6.37586zm-1.00087,1.03793c0,0 4.33707,0 4.48535,0c0.11121,0.18534 0.29655,0.33362 0.55603,0.33362c0.25949,0 0.4819,-0.14828 0.55604,-0.33362c0.14827,0 4.48534,0 4.48534,0l0,-7.41379l-0.14827,0l-0.40776,0l0.0371,0.14827c0,0 0,0.0371 0,0.0371l0,6.70948c-0.33362,0 -3.96638,0 -4.15173,0c-0.0741,0.11121 -0.14827,0.14828 -0.37069,0.14828c-0.18534,0 -0.25948,-0.0371 -0.33362,-0.14828c-0.18534,0 -3.52155,0 -4.18879,0l0,-6.70948c0,0 0,-0.0371 0,-0.0371l0.0371,-0.14827l-0.55603,0l-0.00007,7.41379zm1.63104,14.86465l10.56465,-9.48965l10.60173,9.52672c0.70431,-1.33448 1.1862,-2.63189 1.59396,-3.85517l-12.19569,-10.97241l-12.15862,10.93534c0.37069,1.22328 0.88966,2.52069 1.59397,3.85517zm2.2612,-17.94138c0.25949,0 0.4819,0.0371 0.63018,0.11121l0,-0.33362c-0.18535,-0.0741 -0.40776,-0.0741 -0.63018,-0.11121c-0.44482,0 -0.88965,0.11121 -1.37155,0.22242c-0.37069,0.1112 -0.74138,0.18534 -1.14913,0.22241l0,0.29655c0.40775,-0.0371 0.81551,-0.14827 1.22327,-0.22241c0.4819,-0.0741 0.88966,-0.18535 1.29741,-0.18535zm0,0.77845c0.25949,0 0.4819,0.0371 0.63018,0.11121l0,-0.33362c-0.18535,-0.0741 -0.40776,-0.11121 -0.63018,-0.11121c-0.44482,0 -0.88965,0.11121 -1.37155,0.22242c-0.37069,0.1112 -0.74138,0.18534 -1.14913,0.22241l0,0.29655c0.40775,-0.0371 0.81551,-0.14827 1.22327,-0.22241c0.4819,-0.11121 0.88966,-0.22242 1.29741,-0.18535zm0,-4.55948c0.25949,0 0.4819,0.0741 0.63018,0.11121l0,-0.33362c-0.18535,-0.0741 -0.40776,-0.0741 -0.63018,-0.11121c-0.44482,0 -0.88965,0.11121 -1.37155,0.22241c-0.37069,0.11121 -0.74138,0.18535 -1.14913,0.22242l0,0.29655c0.40775,-0.0371 0.81551,-0.11121 1.22327,-0.22242c0.4819,-0.1112 0.88966,-0.18534 1.29741,-0.18534zm3.59569,1.74224c0.37069,0.11121 0.77845,0.18535 1.22328,0.22242l0,-0.29656c-0.37069,-0.0371 -0.77845,-0.1112 -1.14914,-0.22241c-0.48189,-0.11121 -0.92672,-0.22241 -1.37155,-0.22241c-0.22241,0 -0.44483,0.0371 -0.63017,0.1112l0,0.33362c0.14827,-0.0741 0.37069,-0.1112 0.63017,-0.1112c0.40776,-0.0741 0.85259,0.0371 1.29741,0.18534zm0,-1.51983c0.37069,0.11121 0.77845,0.18535 1.22328,0.22242l0,-0.29655c-0.37069,-0.0371 -0.77845,-0.11121 -1.14914,-0.22242c-0.48189,-0.1112 -0.92672,-0.22241 -1.37155,-0.22241c-0.22241,0 -0.44483,0.0371 -0.63017,0.11121l0,0.33362c0.14827,-0.0741 0.37069,-0.11121 0.63017,-0.11121c0.40776,-0.0371 0.85259,0.0371 1.29741,0.18534zm0,3.00259c0.37069,0.0741 0.81552,0.18534 1.22328,0.22241l0,-0.29655c-0.40776,-0.0371 -0.77845,-0.1112 -1.14914,-0.22241c-0.48189,-0.11121 -0.92672,-0.22242 -1.33448,-0.22242c-0.22241,0 -0.44483,0.0371 -0.63017,0.0741l0,0.33362c0.14827,-0.0741 0.37069,-0.1112 0.63017,-0.1112c0.37069,0 0.81552,0.1112 1.26034,0.22241l0,0.00004zm0,-2.26121c0.37069,0.11121 0.77845,0.18535 1.22328,0.22242l0,-0.29655c-0.37069,-0.0371 -0.77845,-0.11121 -1.14914,-0.22242c-0.48189,-0.11121 -0.92672,-0.22241 -1.37155,-0.22241c-0.22241,0 -0.44483,0.0371 -0.63017,0.1112l0,0.33363c0.14827,-0.0741 0.37069,-0.11121 0.63017,-0.11121c0.40776,-0.0371 0.85259,0.0741 1.29741,0.18534zm0,3.03966c0.37069,0.11121 0.77845,0.18534 1.22328,0.22241l0,-0.29655c-0.37069,-0.0371 -0.77845,-0.14828 -1.14914,-0.22241c-0.48189,-0.11121 -0.92672,-0.22242 -1.37155,-0.22242c-0.22241,0 -0.44483,0.0371 -0.63017,0.11121l0,0.33362c0.14827,-0.0741 0.37069,-0.11121 0.63017,-0.11121c0.40776,-0.0371 0.85259,0.0741 1.29741,0.18535zm0,0.74138c0.37069,0.1112 0.77845,0.18534 1.22328,0.22241l0,-0.29655c-0.37069,-0.0371 -0.77845,-0.11121 -1.14914,-0.22241c-0.48189,-0.11121 -0.92672,-0.22242 -1.37155,-0.22242c-0.22241,0 -0.44483,0.0371 -0.63017,0.11121l0,0.33362c0.14827,-0.0741 0.37069,-0.11121 0.63017,-0.11121c0.40776,-0.0371 0.85259,0.0741 1.29741,0.18535zm23.65001,15.75431l-0.0741,0.18534c-0.70431,2.33535 -1.89052,4.67069 -2.74311,6.19052l-0.18534,0.29655l-1.22328,-1.11207c-0.0371,0.0741 -0.1112,0.18535 -0.14827,0.25949c-3.1138,4.96724 -7.48793,8.56293 -12.71466,10.49051l-1.85345,0.66724l-1.85345,-0.66724c-5.18965,-1.89051 -9.60086,-5.52327 -12.67758,-10.49051c-0.0371,-0.0741 -0.0741,-0.18535 -0.14828,-0.25949l-1.26034,1.11207l-0.18535,-0.33362c-0.85258,-1.5569 -2.00172,-3.89224 -2.7431,-6.19052l-0.0371,-0.14827l3.00259,-2.70604l0.37069,-0.33362l0.14827,0.44483c0.14828,0.55603 0.33362,1.075 0.51897,1.59397l0.85258,-0.77845l0.33362,-0.29655l0.14828,0.44482c0.63017,1.89052 1.48276,3.66983 2.48362,5.2638c2.6319,4.18879 6.30172,7.22845 10.63879,8.82241c0,0 0.29656,0.11121 0.44483,0.14828c0.14828,-0.0371 0.44483,-0.14828 0.44483,-0.14828c4.33707,-1.59396 8.04396,-4.63362 10.63879,-8.82241c1.00086,-1.59397 1.85345,-3.37328 2.48362,-5.2638l0.14828,-0.44482l1.18621,1.075c0.18534,-0.51897 0.37069,-1.03794 0.51896,-1.59397l0.14828,-0.44483l3.3362,3.03966zm-35.3638,4.44827l-0.55603,-3.52155l1.63103,-1.48276c-0.18534,-0.44482 -0.33362,-0.92672 -0.4819,-1.40862c-0.48189,0.44483 -2.15,1.92759 -2.37241,2.15c0.4819,1.48276 1.11207,2.96552 1.77931,4.26293zm1.44569,0.59311c-0.37069,-0.63017 -0.74138,-1.29742 -1.03793,-1.96466l0.40776,2.55776c0.11121,-0.14827 0.37069,-0.37069 0.63017,-0.5931zm31.02673,-1.96466c-0.29656,0.66724 -0.66725,1.33449 -1.03794,1.96466c0,0 0,0 0,0c0.25949,0.22241 0.4819,0.44483 0.63018,0.5931l0.40776,-2.55776zm0.22241,-2.03879c-0.25948,-0.22241 -1.85345,-1.6681 -2.29828,-2.07586c-0.63017,1.77931 -1.40862,3.48448 -2.37241,5.00431c-2.66897,4.3 -6.45,7.41379 -10.93535,9.08189l-0.66724,0.22242c0,0 -0.63017,-0.22242 -0.63017,-0.22242c-4.48534,-1.63103 -8.22931,-4.78189 -10.93534,-9.08189c-0.9638,-1.51983 -1.74225,-3.225 -2.37242,-5.00431c-0.48189,0.40776 -2.03879,1.85345 -2.29827,2.07586c0.5931,1.5569 1.37155,3.07672 2.22413,4.44828c3.03966,4.85603 7.33966,8.37758 12.41811,10.23103c0,0 1.48276,0.51897 1.63103,0.5931c0.18535,-0.0741 1.66811,-0.5931 1.66811,-0.5931c5.07844,-1.85345 9.37844,-5.41207 12.4181,-10.23103c0.77845,-1.33449 1.5569,-2.85432 2.15,-4.44828zm1.96465,-0.88966c-0.22241,-0.22241 -1.89051,-1.70517 -2.37241,-2.15c-0.14827,0.4819 -0.29655,0.9638 -0.4819,1.40862l1.63104,1.48276l-0.55604,3.55862c0.63018,-1.29741 1.29742,-2.78017 1.77931,-4.3zm-31.95344,4.52242l0.0371,0.14827l-0.11121,0.0741c-0.0741,-0.1112 -0.11121,-0.22241 -0.18535,-0.37069c-0.0741,-0.1112 -0.14827,-0.22241 -0.22241,-0.37069l0.11121,-0.0371l0.1112,0.11121c0.11121,-0.11121 0.29656,-0.25948 0.37069,-0.40776l-0.25948,-0.48189l-0.51896,0.1112l0.0371,0.14828l-0.0741,0.0371c-0.0371,-0.11121 -0.11121,-0.18535 -0.14828,-0.29655c-0.0371,-0.0741 -0.0741,-0.14828 -0.14828,-0.25949l0.11121,-0.0371l0.11121,0.11121c0.37069,0 1.14914,-0.14827 1.63103,-0.22241c0.0741,0.1112 0.18535,0.18534 0.25948,0.25948l0.0371,0.14828l-0.48189,0.5931c-0.25948,0.25948 -0.55604,0.63017 -0.66724,0.74138l-0.00013,0.00007zm0.29655,-1.00086l0.44483,-0.4819l0,0l-0.66725,0.14828l0.22242,0.33362zm2.70603,2.7431l0.0741,-0.0741c-0.0741,-0.0741 -0.1112,-0.14828 -0.18534,-0.25948c-0.0741,-0.0741 -0.11121,-0.18535 -0.18535,-0.25949l-0.1112,0.0741l0.0741,0.14828c-0.25949,0.18534 -0.85259,0.66724 -0.85259,0.66724l0,0c0.14827,-0.44483 0.33362,-0.96379 0.51896,-1.40862c-0.0741,-0.0741 -0.1112,-0.14828 -0.18534,-0.22241c-0.0371,-0.0741 -0.11121,-0.14828 -0.14828,-0.22242l-0.0741,0.0741l0.0741,0.14828c-0.1112,0.11121 -0.22241,0.18534 -0.37069,0.29655l-0.40775,0.29655c-0.14828,0.11121 -0.25949,0.18535 -0.40776,0.25948l-0.11121,-0.1112l-0.0741,0.0741c0.0741,0.0741 0.11121,0.14827 0.18534,0.25948c0.0741,0.0741 0.11121,0.18535 0.18535,0.25948l0.0741,-0.0741l-0.11121,-0.18534c0.25949,-0.18535 0.59311,-0.44483 0.88966,-0.66724l0,0c-0.18535,0.44482 -0.33362,0.92672 -0.51897,1.44569c0.0371,0.0371 0.0741,0.1112 0.11121,0.14827c0.0371,0.0371 0.0741,0.11121 0.11121,0.14828c0.14827,-0.11121 0.29655,-0.25948 0.51896,-0.40776l0.40776,-0.29655c0.14828,-0.11121 0.29655,-0.18535 0.40776,-0.25948l0.11128,0.14831zm0.14828,1.37155c-0.40776,0.37069 -0.37069,0.92673 -0.0371,1.26035c0.22241,0.22241 0.44483,0.37069 0.85258,0.40775l0.0371,-0.22241c-0.22241,-0.0371 -0.40775,-0.11121 -0.51896,-0.25948c-0.25948,-0.25948 -0.25948,-0.63017 0.0371,-0.92673c0.29655,-0.29655 0.63017,-0.18534 0.81552,0.0371c0.1112,0.11121 0.18534,0.25949 0.18534,0.40776l-0.0741,0.14828l0.0741,0.11121c0.11121,-0.0741 0.25948,-0.18535 0.37069,-0.22242c-0.0741,-0.22241 -0.18534,-0.37069 -0.33362,-0.55603c-0.40776,-0.4819 -1.00086,-0.55604 -1.40862,-0.18535l-0.00003,-0.00003zm3.59569,3.41035c-0.33362,0.40775 -0.85259,0.44482 -1.37155,0.0371c-0.4819,-0.40776 -0.55604,-0.88966 -0.18535,-1.37156c0.33362,-0.40775 0.88966,-0.44482 1.37155,-0.0371c0.4819,0.40776 0.55604,0.92673 0.18535,1.37156zm-0.37069,-1.14914c-0.25948,-0.22242 -0.59311,-0.11121 -0.85259,0.14827c-0.25948,0.29656 -0.25948,0.63018 0,0.85259c0.25948,0.22241 0.59311,0.11121 0.85259,-0.14828c0.22241,-0.29655 0.25948,-0.66724 0,-0.85258zm2.96552,2.37241c-0.11121,0.22242 -0.37069,0.25948 -0.63018,0.14828c0.0371,0.18534 0.11121,0.81551 0.14828,0.92672l0.0371,0.0741l-0.0741,0.11121c-0.14828,-0.11121 -0.33362,-0.18535 -0.4819,-0.25948c0,-0.29656 -0.0371,-0.74138 -0.0741,-1.00087l-0.1112,-0.0741l-0.0741,0.14828c-0.11121,0.14828 -0.18535,0.29655 -0.22242,0.40776l0.11121,0.11121l-0.0741,0.1112c-0.11121,-0.0741 -0.22242,-0.14827 -0.33362,-0.22241c-0.11121,-0.0741 -0.22242,-0.14828 -0.37069,-0.22242l0.0741,-0.1112l0.14827,0.0741c0.11121,-0.11121 0.18535,-0.25949 0.29656,-0.40776l0.25948,-0.44483c0.11121,-0.14827 0.18534,-0.29655 0.25948,-0.40776l-0.11121,-0.1112l0.0741,-0.11121c0.0741,0.0741 0.18535,0.11121 0.25949,0.18534c0.1112,0.0741 0.22241,0.11121 0.33362,0.18535c0.1112,0.0741 0.22241,0.11121 0.33362,0.18534c0.37069,0.22242 0.37069,0.4819 0.22241,0.70431l-0.0001,0.00004zm-0.55604,-0.63017c-0.11121,-0.0741 -0.14828,-0.0741 -0.22241,-0.11121c-0.0371,0.0741 -0.11121,0.18535 -0.18535,0.29655l-0.0741,0.11121c0.0371,0.0371 0.0741,0.0741 0.11121,0.11121c0.22241,0.14827 0.40776,0.14827 0.51896,-0.0371c0.0741,-0.14828 0.0371,-0.25948 -0.14827,-0.37069l-0.00004,0.00003zm2.81724,2.00172c-0.0371,0.33362 -0.0741,0.81552 -0.0741,1.00087l0.11121,0.0741l-0.0371,0.1112c-0.11121,-0.0741 -0.25948,-0.1112 -0.37069,-0.18534c-0.11121,-0.0741 -0.25948,-0.11121 -0.37069,-0.14828l0.0371,-0.11121l0.14828,0.0371c0.0371,-0.14827 0.0741,-0.37068 0.0741,-0.51896l-0.51897,-0.22241l-0.33362,0.40775l0.11121,0.0741l-0.0371,0.11121c-0.11121,-0.0371 -0.22242,-0.11121 -0.29656,-0.14827c-0.0741,-0.0371 -0.18534,-0.0741 -0.25948,-0.11121l0.0371,-0.11121l0.14828,0.0371c0.29655,-0.22241 0.81551,-0.77845 1.1862,-1.1862c0.14828,0.0371 0.25949,0.0371 0.37069,0.0741l0.14828,0.1112l-0.07414,0.70436zm-0.37069,-0.66724l0,0l-0.44483,0.51897l0.37069,0.18534l0.07414,-0.70431zm5.44914,1.29742c-0.0741,-0.14828 -0.14828,-0.25949 -0.22241,-0.44483l-0.18535,-0.44483c-0.0741,-0.18534 -0.14827,-0.29655 -0.18534,-0.44483l0.14827,-0.0741l-0.0371,-0.1112c-0.1112,0.0741 -0.25948,0.1112 -0.37069,0.18534c-0.1112,0.0371 -0.25948,0.11121 -0.37069,0.14828l0.0371,0.1112l0.14828,-0.0371c0.0741,0.14828 0.14828,0.25949 0.22241,0.44483l0.18535,0.44483c0.0741,0.18534 0.1112,0.29655 0.18534,0.44483l-0.14827,0.0741l0.0371,0.1112c0.1112,-0.0741 0.25948,-0.1112 0.37069,-0.18534c0.1112,-0.0371 0.25948,-0.11121 0.37069,-0.14828l-0.0371,-0.1112l-0.14828,0.0371zm3.18793,-1.70518c-0.0741,-0.1112 -0.18534,-0.25948 -0.25948,-0.40776l-0.25948,-0.44482c-0.11121,-0.14828 -0.18535,-0.29655 -0.22242,-0.40776l0.11121,-0.11121l-0.0741,-0.11121c-0.11121,0.0741 -0.22241,0.14828 -0.29655,0.18535c-0.11121,0.0741 -0.22242,0.11121 -0.33362,0.18534c0.0741,0.22242 0.22241,1.11207 0.25948,1.29742c-0.18535,-0.14828 -0.85259,-0.66724 -1.00086,-0.85259c-0.11121,0.0741 -0.22242,0.14828 -0.29655,0.18535c-0.11121,0.0741 -0.22242,0.1112 -0.33363,0.18534l0.0741,0.11121l0.14828,-0.0371l0.11121,0.22241c0.1112,0.22242 0.51896,0.88966 0.5931,1.075l-0.11121,0.11121l0.0741,0.11121c0.0741,-0.0371 0.18535,-0.11121 0.25949,-0.14828c0.0741,-0.0371 0.18534,-0.11121 0.25948,-0.14828l-0.0741,-0.1112l-0.14828,0.0741c-0.0741,-0.11121 -0.18534,-0.25949 -0.25948,-0.40776l-0.14827,-0.25948c-0.11121,-0.22242 -0.22242,-0.37069 -0.25949,-0.44483l0,0c0.63017,0.55603 1.00086,0.81552 1.14914,0.96379l0.22241,-0.14827l-0.29655,-1.48276l0,0c0.0371,0.0741 0.14828,0.22241 0.25949,0.44482l0.14827,0.25949c0.11121,0.14827 0.14828,0.29655 0.22241,0.44483l-0.1112,0.1112l0.0371,0.11121c0.1112,-0.0741 0.22241,-0.14828 0.33362,-0.22241c0.11121,-0.0741 0.25948,-0.14828 0.37069,-0.22242l-0.0371,-0.11121l-0.11121,0.00007zm1.70517,-1.29741c-0.1112,-0.11121 -0.22241,-0.22241 -0.33362,-0.37069l-0.22241,-0.29655c-0.11121,-0.11121 -0.22241,-0.25948 -0.29655,-0.40776c0.0371,-0.0371 0.0741,-0.11121 0.14827,-0.14828c0.18535,-0.14827 0.33362,-0.1112 0.44483,0c0.11121,0.14828 0.14828,0.33362 -0.0371,0.44483c-0.0371,0.0371 -0.0741,0.0741 -0.11121,0.0741l0.0741,0.22242c0.0741,-0.0371 0.14828,-0.11121 0.22242,-0.14828c0.37069,-0.29655 0.37069,-0.66724 0.18534,-0.92672c-0.18534,-0.22242 -0.48189,-0.25949 -0.77845,0c-0.0741,0.0741 -0.14827,0.14827 -0.25948,0.22241c-0.11121,0.11121 -0.22241,0.18534 -0.29655,0.25948c-0.0741,0.0741 -0.18534,0.14828 -0.29655,0.22242l0.0741,0.0741l0.14827,-0.0741c0.11121,0.1112 0.22242,0.22241 0.33362,0.37069l0.29656,0.40775c0.1112,0.14828 0.22241,0.25949 0.29655,0.37069l-0.11121,0.11121l0.0741,0.0741c0.11121,-0.0741 0.22242,-0.18534 0.33362,-0.25948c0.11121,-0.0741 0.22242,-0.14828 0.37069,-0.29655l-0.0741,-0.0741l-0.18524,0.14831zm2.92845,-2.66897l0.0741,0.0741c-0.1112,0.0741 -0.18534,0.18535 -0.29655,0.29656c-0.11121,0.1112 -0.18534,0.22241 -0.29655,0.29655l-0.0741,-0.0741l0.0741,-0.11121c-0.11121,-0.0741 -0.33362,-0.18534 -0.4819,-0.25948l-0.40776,0.40776l0.25949,0.44482l0.1112,-0.0741l0.0741,0.0741c-0.0741,0.0741 -0.14827,0.14828 -0.22241,0.22242c-0.0741,0.0741 -0.14828,0.14827 -0.18535,0.22241l-0.0741,-0.0741l0.0741,-0.11121c-0.1112,-0.33362 -0.48189,-1.03793 -0.70431,-1.51982c0.0741,-0.11121 0.14828,-0.22242 0.18535,-0.33362l0.14827,-0.0741l0.66725,0.29655c0.29655,0.14827 0.74138,0.33362 0.88965,0.37069l0.18542,-0.07422zm-1.14914,0.11121l-0.63017,-0.29655l0,0l0.33362,0.5931l0.29655,-0.29655zm3.03966,-2.52069l0.0741,0.0741c-0.11121,0.14828 -0.22241,0.29655 -0.29655,0.44483c-0.33362,0 -0.77845,-0.0371 -1.03793,-0.0371l-0.0741,0.11121l0.1112,0.1112c0.14828,0.11121 0.25949,0.18535 0.40776,0.25949l0.11121,-0.11121l0.11121,0.0741c-0.0741,0.11121 -0.18535,0.22241 -0.25949,0.33362c-0.0741,0.11121 -0.14827,0.22241 -0.25948,0.33362l-0.11121,-0.0741l0.0741,-0.14828c-0.1112,-0.1112 -0.22241,-0.18534 -0.37069,-0.29655l-0.40775,-0.29655c-0.14828,-0.11121 -0.25949,-0.18534 -0.40776,-0.29655l-0.11121,0.11121l-0.11121,-0.0741c0.0741,-0.0741 0.14828,-0.14828 0.18535,-0.25949c0.0741,-0.1112 0.14827,-0.18534 0.22241,-0.29655c0.0741,-0.11121 0.14828,-0.18534 0.22242,-0.29655c0.29655,-0.40776 0.55603,-0.37069 0.74137,-0.22241c0.18535,0.14827 0.22242,0.40775 0.11121,0.63017c0.18535,0 0.81552,-0.0371 0.92673,-0.0371l0.14831,-0.03701zm-1.37155,-0.14827c-0.11121,-0.11121 -0.25948,-0.0741 -0.37069,0.1112c-0.0741,0.0741 -0.11121,0.14828 -0.14828,0.18535c0.0741,0.0371 0.14828,0.14827 0.29655,0.22241l0.11121,0.0741c0.0371,-0.0371 0.0741,-0.0741 0.11121,-0.11121c0.14827,-0.18534 0.14827,-0.33362 0,-0.48189l0,0.00004zm2.63189,-1.5569c-0.33362,0.55603 -0.81551,0.70431 -1.29741,0.40776c-0.44483,-0.25949 -0.5931,-0.77845 -0.25948,-1.33449c0.33362,-0.55603 0.77845,-0.70431 1.29741,-0.40775c0.44483,0.22241 0.59311,0.77844 0.25948,1.33448zm-0.51896,-0.92673c-0.33362,-0.18534 -0.66724,-0.14827 -0.85259,0.11121c-0.18534,0.29655 -0.0371,0.59311 0.29655,0.81552c0.33363,0.18534 0.66725,0.14827 0.85259,-0.11121c0.18535,-0.29655 0.0371,-0.63017 -0.29655,-0.81552zm-13.41897,10.49052c-0.18534,0 -0.37069,0.18535 -0.37069,0.40776c0,0.22241 0.18535,0.40776 0.37069,0.40776c0.22242,0 0.40776,-0.18535 0.40776,-0.40776c0,-0.22241 -0.18534,-0.40776 -0.40776,-0.40776zm-14.45689,-12.34396c0.22241,0 0.40776,-0.18535 0.40776,-0.37069c0,-0.22242 -0.18535,-0.40776 -0.40776,-0.40776c-0.22242,0 -0.37069,0.18534 -0.37069,0.40776c0,0.18534 0.18534,0.37069 0.37069,0.37069zm28.98793,0c0.22241,0 0.40776,-0.18535 0.40776,-0.37069c0,-0.22242 -0.18535,-0.40776 -0.40776,-0.40776c-0.18535,0 -0.37069,0.18534 -0.37069,0.40776c-0.0371,0.18534 0.14827,0.37069 0.37069,0.37069z" id="use7800"/>
 </g>
</svg>